Metropolis-ThinItalic.ufo
<glyph name="dollar" format="2">
	<advance width="682"/>
	<unicode hex="0024"/>
	<anchor x="440" y="687" name="top"/>
	<anchor x="299" y="0" name="bottom"/>
	<outline>
		<contour>
			<point x="425" y="759" type="line"/>
			<point x="252" y="-74" type="line"/>
			<point x="288" y="-74" type="line"/>
			<point x="461" y="759" type="line"/>
		</contour>
		<contour>
			<point x="303" y="-11" type="curve"/>
			<point x="303" y="-11" type="line"/>
			<point x="452" y="-11"/>
			<point x="577" y="89"/>
			<point x="577" y="208" type="curve"/>
			<point x="577" y="294"/>
			<point x="517" y="327"/>
			<point x="383" y="365" type="curve"/>
			<point x="280" y="394"/>
			<point x="206" y="415"/>
			<point x="206" y="490" type="curve"/>
			<point x="206" y="584"/>
			<point x="308" y="664"/>
			<point x="430" y="664" type="curve"/>
			<point x="507" y="664"/>
			<point x="579" y="629"/>
			<point x="623" y="575" type="curve"/>
			<point x="649" y="601" type="line"/>
			<point x="594" y="663"/>
			<point x="515" y="700"/>
			<point x="432" y="700" type="curve"/>
			<point x="290" y="700"/>
			<point x="170" y="600"/>
			<point x="170" y="481" type="curve"/>
			<point x="170" y="397"/>
			<point x="234" y="369"/>
			<point x="365" y="332" type="curve"/>
			<point x="463" y="305"/>
			<point x="540" y="282"/>
			<point x="540" y="200" type="curve"/>
			<point x="540" y="105"/>
			<point x="433" y="25"/>
			<point x="305" y="25" type="curve"/>
			<point x="222" y="25"/>
			<point x="132" y="59"/>
			<point x="80" y="125" type="curve"/>
			<point x="55" y="99" type="line"/>
			<point x="114" y="26"/>
			<point x="211" y="-11"/>
		</contour>
	</outline>
</glyph>
<glyph name="parenleft" format="2">
	<advance width="359"/>
	<unicode hex="0028"/>
	<outline>
		<contour>
			<point x="179" y="-169" type="curve"/>
			<point x="179" y="-169" type="line"/>
			<point x="208" y="-144" type="line"/>
			<point x="136" y="-51"/>
			<point x="98" y="61"/>
			<point x="98" y="170" type="curve"/>
			<point x="98" y="358"/>
			<point x="224" y="541"/>
			<point x="379" y="673" type="curve"/>
			<point x="358" y="701" type="line"/>
			<point x="196" y="563"/>
			<point x="62" y="368"/>
			<point x="62" y="168" type="curve"/>
			<point x="62" y="49"/>
			<point x="103" y="-71"/>
		</contour>
	</outline>
</glyph>
<glyph name="parenright" format="2">
	<advance width="360"/>
	<unicode hex="0029"/>
	<outline>
		<contour>
			<point x="-17" y="-142" type="curve"/>
			<point x="4" y="-171" type="line"/>
			<point x="166" y="-35"/>
			<point x="300" y="161"/>
			<point x="300" y="360" type="curve"/>
			<point x="300" y="478"/>
			<point x="259" y="599"/>
			<point x="183" y="699" type="curve"/>
			<point x="154" y="675" type="line"/>
			<point x="226" y="582"/>
			<point x="264" y="469"/>
			<point x="264" y="360" type="curve"/>
			<point x="264" y="172"/>
			<point x="139" y="-11"/>
		</contour>
	</outline>
</glyph>
<glyph name="asterisk" format="2">
	<advance width="382"/>
	<unicode hex="002A"/>
	<outline>
		<contour>
			<point x="221" y="404" type="curve"/>
			<point x="221" y="404" type="line"/>
			<point x="231" y="404"/>
			<point x="241" y="412"/>
			<point x="243" y="421" type="curve"/>
			<point x="249" y="452"/>
			<point x="249" y="489"/>
			<point x="253" y="529" type="curve"/>
			<point x="282" y="505"/>
			<point x="305" y="480"/>
			<point x="327" y="464" type="curve"/>
			<point x="334" y="459"/>
			<point x="347" y="463"/>
			<point x="352" y="471" type="curve"/>
			<point x="360" y="480"/>
			<point x="359" y="491"/>
			<point x="351" y="495" type="curve"/>
			<point x="327" y="509"/>
			<point x="295" y="522"/>
			<point x="262" y="539" type="curve"/>
			<point x="302" y="556"/>
			<point x="341" y="567"/>
			<point x="370" y="583" type="curve"/>
			<point x="379" y="588"/>
			<point x="385" y="598"/>
			<point x="381" y="607" type="curve"/>
			<point x="378" y="615"/>
			<point x="367" y="618"/>
			<point x="358" y="614" type="curve"/>
			<point x="328" y="600"/>
			<point x="296" y="573"/>
			<point x="258" y="549" type="curve"/>
			<point x="270" y="589"/>
			<point x="286" y="626"/>
			<point x="292" y="657" type="curve"/>
			<point x="294" y="666"/>
			<point x="288" y="674"/>
			<point x="278" y="674" type="curve"/>
			<point x="268" y="674"/>
			<point x="258" y="666"/>
			<point x="256" y="657" type="curve"/>
			<point x="250" y="626"/>
			<point x="250" y="589"/>
			<point x="246" y="549" type="curve"/>
			<point x="218" y="573"/>
			<point x="195" y="598"/>
			<point x="172" y="614" type="curve"/>
			<point x="165" y="619"/>
			<point x="153" y="615"/>
			<point x="147" y="607" type="curve"/>
			<point x="140" y="598"/>
			<point x="142" y="587"/>
			<point x="148" y="583" type="curve"/>
			<point x="173" y="569"/>
			<point x="204" y="556"/>
			<point x="238" y="539" type="curve"/>
			<point x="197" y="522"/>
			<point x="159" y="511"/>
			<point x="129" y="495" type="curve"/>
			<point x="120" y="490"/>
			<point x="115" y="480"/>
			<point x="118" y="471" type="curve"/>
			<point x="122" y="463"/>
			<point x="133" y="460"/>
			<point x="141" y="464" type="curve"/>
			<point x="172" y="478"/>
			<point x="204" y="505"/>
			<point x="241" y="529" type="curve"/>
			<point x="229" y="489"/>
			<point x="213" y="452"/>
			<point x="207" y="421" type="curve"/>
			<point x="205" y="412"/>
			<point x="211" y="404"/>
		</contour>
	</outline>
</glyph>
<glyph name="plus" format="2">
	<advance width="618"/>
	<unicode hex="002B"/>
	<outline>
		<contour>
			<point x="99" y="352" type="line"/>
			<point x="91" y="316" type="line"/>
			<point x="550" y="316" type="line"/>
			<point x="558" y="352" type="line"/>
		</contour>
		<contour>
			<point x="355" y="564" type="line"/>
			<point x="259" y="105" type="line"/>
			<point x="295" y="105" type="line"/>
			<point x="391" y="564" type="line"/>
		</contour>
	</outline>
</glyph>
<glyph name="period" format="2">
	<advance width="210"/>
	<unicode hex="002E"/>
	<outline>
		<contour>
			<point x="53" y="-12" type="curve"/>
			<point x="53" y="-12" type="line"/>
			<point x="69" y="-12"/>
			<point x="85" y="4"/>
			<point x="85" y="22" type="curve"/>
			<point x="85" y="36"/>
			<point x="75" y="48"/>
			<point x="59" y="48" type="curve"/>
			<point x="40" y="48"/>
			<point x="25" y="29"/>
			<point x="25" y="14" type="curve"/>
			<point x="25" y="-1"/>
			<point x="36" y="-12"/>
		</contour>
	</outline>
</glyph>
<glyph name="one" format="2">
	<advance width="365"/>
	<unicode hex="0031"/>
	<outline>
		<contour>
			<point x="320" y="640" type="line"/>
			<point x="186" y="0" type="line"/>
			<point x="222" y="0" type="line"/>
			<point x="365" y="687" type="line"/>
			<point x="336" y="687" type="line"/>
			<point x="131" y="572" type="line"/>
			<point x="144" y="542" type="line"/>
		</contour>
	</outline>
</glyph>
<glyph name="two" format="2">
	<advance width="600"/>
	<unicode hex="0032"/>
	<outline>
		<contour>
			<point x="22" y="39" type="line"/>
			<point x="14" y="0" type="line"/>
			<point x="478" y="0" type="line"/>
			<point x="486" y="36" type="line"/>
			<point x="72" y="36" type="line"/>
			<point x="356" y="240" type="line" smooth="yes"/>
			<point x="470" y="323"/>
			<point x="568" y="425"/>
			<point x="568" y="538" type="curve"/>
			<point x="568" y="626"/>
			<point x="505" y="699"/>
			<point x="396" y="699" type="curve"/>
			<point x="315" y="699"/>
			<point x="219" y="659"/>
			<point x="138" y="568" type="curve"/>
			<point x="163" y="544" type="line"/>
			<point x="235" y="623"/>
			<point x="321" y="665"/>
			<point x="397" y="665" type="curve"/>
			<point x="485" y="665"/>
			<point x="532" y="604"/>
			<point x="532" y="535" type="curve"/>
			<point x="532" y="436"/>
			<point x="441" y="346"/>
			<point x="336" y="269" type="curve"/>
		</contour>
	</outline>
</glyph>
<glyph name="six" format="2">
	<advance width="603"/>
	<unicode hex="0036"/>
	<outline>
		<contour>
			<point x="259" y="-12" type="curve"/>
			<point x="259" y="-12" type="line"/>
			<point x="395" y="-12"/>
			<point x="528" y="121"/>
			<point x="528" y="255" type="curve"/>
			<point x="528" y="353"/>
			<point x="455" y="429"/>
			<point x="354" y="429" type="curve"/>
			<point x="236" y="429"/>
			<point x="122" y="352"/>
			<point x="102" y="259" type="curve"/>
			<point x="101" y="207" type="line"/>
			<point x="125" y="307"/>
			<point x="238" y="393"/>
			<point x="345" y="393" type="curve"/>
			<point x="431" y="393"/>
			<point x="492" y="330"/>
			<point x="492" y="249" type="curve"/>
			<point x="492" y="140"/>
			<point x="380" y="24"/>
			<point x="261" y="24" type="curve"/>
			<point x="162" y="24"/>
			<point x="110" y="93"/>
			<point x="110" y="213" type="curve"/>
			<point x="110" y="416"/>
			<point x="236" y="663"/>
			<point x="414" y="663" type="curve"/>
			<point x="476" y="663"/>
			<point x="536" y="636"/>
			<point x="574" y="589" type="curve"/>
			<point x="598" y="616" type="line"/>
			<point x="554" y="668"/>
			<point x="488" y="699"/>
			<point x="418" y="699" type="curve"/>
			<point x="218" y="699"/>
			<point x="75" y="439"/>
			<point x="75" y="209" type="curve"/>
			<point x="75" y="68"/>
			<point x="139" y="-12"/>
		</contour>
	</outline>
</glyph>
<glyph name="seven" format="2">
	<advance width="590"/>
	<unicode hex="0037"/>
	<outline>
		<contour>
			<point x="561" y="651" type="line"/>
			<point x="119" y="0" type="line"/>
			<point x="160" y="0" type="line"/>
			<point x="606" y="658" type="line"/>
			<point x="611" y="687" type="line"/>
			<point x="156" y="687" type="line"/>
			<point x="149" y="651" type="line"/>
		</contour>
	</outline>
</glyph>
<glyph name="eight" format="2">
	<advance width="596"/>
	<unicode hex="0038"/>
	<outline>
		<contour>
			<point x="244" y="-12" type="curve"/>
			<point x="244" y="-12" type="line"/>
			<point x="372" y="-12"/>
			<point x="513" y="85"/>
			<point x="513" y="205" type="curve"/>
			<point x="513" y="272"/>
			<point x="468" y="331"/>
			<point x="397" y="353" type="curve"/>
			<point x="494" y="383"/>
			<point x="567" y="467"/>
			<point x="567" y="547" type="curve"/>
			<point x="567" y="632"/>
			<point x="491" y="699"/>
			<point x="386" y="699" type="curve"/>
			<point x="260" y="699"/>
			<point x="138" y="601"/>
			<point x="138" y="493" type="curve"/>
			<point x="138" y="432"/>
			<point x="178" y="377"/>
			<point x="238" y="355" type="curve"/>
			<point x="142" y="328"/>
			<point x="49" y="247"/>
			<point x="49" y="148" type="curve"/>
			<point x="49" y="58"/>
			<point x="131" y="-12"/>
		</contour>
		<contour>
			<point x="246" y="24" type="curve"/>
			<point x="246" y="24" type="line"/>
			<point x="152" y="24"/>
			<point x="85" y="81"/>
			<point x="85" y="152" type="curve"/>
			<point x="85" y="254"/>
			<point x="196" y="328"/>
			<point x="315" y="331" type="curve"/>
			<point x="415" y="328"/>
			<point x="478" y="279"/>
			<point x="478" y="209" type="curve"/>
			<point x="478" y="112"/>
			<point x="363" y="24"/>
		</contour>
		<contour>
			<point x="318" y="373" type="curve"/>
			<point x="318" y="373" type="line"/>
			<point x="229" y="378"/>
			<point x="172" y="425"/>
			<point x="172" y="489" type="curve"/>
			<point x="172" y="581"/>
			<point x="279" y="663"/>
			<point x="384" y="663" type="curve"/>
			<point x="469" y="663"/>
			<point x="531" y="610"/>
			<point x="531" y="543" type="curve"/>
			<point x="531" y="450"/>
			<point x="429" y="379"/>
		</contour>
	</outline>
</glyph>
<glyph name="colon" format="2">
	<advance width="209"/>
	<unicode hex="003A"/>
	<outline>
		<contour>
			<point x="145" y="437" type="curve"/>
			<point x="145" y="437" type="line"/>
			<point x="162" y="437"/>
			<point x="178" y="454"/>
			<point x="178" y="472" type="curve"/>
			<point x="178" y="486"/>
			<point x="167" y="497"/>
			<point x="152" y="497" type="curve"/>
			<point x="132" y="497"/>
			<point x="118" y="480"/>
			<point x="118" y="465" type="curve"/>
			<point x="118" y="449"/>
			<point x="128" y="437"/>
		</contour>
		<contour>
			<point x="52" y="-12" type="curve"/>
			<point x="52" y="-12" type="line"/>
			<point x="68" y="-12"/>
			<point x="84" y="4"/>
			<point x="84" y="22" type="curve"/>
			<point x="84" y="36"/>
			<point x="74" y="48"/>
			<point x="58" y="48" type="curve"/>
			<point x="39" y="48"/>
			<point x="24" y="29"/>
			<point x="24" y="14" type="curve"/>
			<point x="24" y="-1"/>
			<point x="35" y="-12"/>
		</contour>
	</outline>
</glyph>
<glyph name="A" format="2">
	<advance width="794"/>
	<unicode hex="0041"/>
	<anchor x="488" y="687" name="top"/>
	<anchor x="666" y="0" name="bottom"/>
	<outline>
		<contour>
			<point x="170" y="211" type="line"/>
			<point x="163" y="175" type="line"/>
			<point x="602" y="175" type="line"/>
			<point x="609" y="211" type="line"/>
		</contour>
		<contour>
			<point x="61" y="0" type="line"/>
			<point x="507" y="687" type="line"/>
			<point x="466" y="687" type="line"/>
			<point x="20" y="0" type="line"/>
		</contour>
		<contour>
			<point x="666" y="0" type="line"/>
			<point x="506" y="687" type="line"/>
			<point x="467" y="687" type="line"/>
			<point x="627" y="0" type="line"/>
		</contour>
	</outline>
</glyph>
<glyph name="B" format="2">
	<advance width="678"/>
	<unicode hex="0042"/>
	<outline>
		<contour>
			<point x="186" y="687" type="line"/>
			<point x="43" y="0" type="line"/>
			<point x="344" y="0" type="line" smooth="yes"/>
			<point x="474" y="0"/>
			<point x="589" y="99"/>
			<point x="589" y="221" type="curve"/>
			<point x="589" y="284"/>
			<point x="554" y="338"/>
			<point x="498" y="357" type="curve"/>
			<point x="572" y="381"/>
			<point x="630" y="471"/>
			<point x="630" y="550" type="curve"/>
			<point x="630" y="632"/>
			<point x="569" y="687"/>
			<point x="472" y="687" type="curve"/>
		</contour>
		<contour>
			<point x="348" y="36" type="curve"/>
			<point x="87" y="36" type="line"/>
			<point x="150" y="340" type="line"/>
			<point x="415" y="340" type="line" smooth="yes"/>
			<point x="501" y="340"/>
			<point x="553" y="293"/>
			<point x="553" y="223" type="curve"/>
			<point x="553" y="120"/>
			<point x="460" y="36"/>
		</contour>
		<contour>
			<point x="419" y="376" type="curve"/>
			<point x="158" y="376" type="line"/>
			<point x="215" y="651" type="line"/>
			<point x="467" y="651" type="line" smooth="yes"/>
			<point x="545" y="651"/>
			<point x="594" y="609"/>
			<point x="594" y="548" type="curve"/>
			<point x="594" y="458"/>
			<point x="516" y="376"/>
		</contour>
	</outline>
</glyph>
<glyph name="D" format="2">
	<advance width="763"/>
	<unicode hex="0044"/>
	<anchor x="420" y="687" name="top"/>
	<outline>
		<contour>
			<point x="186" y="687" type="line"/>
			<point x="43" y="0" type="line"/>
			<point x="280" y="0" type="line" smooth="yes"/>
			<point x="513" y="0"/>
			<point x="710" y="192"/>
			<point x="710" y="421" type="curve"/>
			<point x="710" y="577"/>
			<point x="590" y="687"/>
			<point x="420" y="687" type="curve"/>
		</contour>
		<contour>
			<point x="284" y="36" type="curve"/>
			<point x="87" y="36" type="line"/>
			<point x="215" y="651" type="line"/>
			<point x="415" y="651" type="line" smooth="yes"/>
			<point x="567" y="651"/>
			<point x="674" y="554"/>
			<point x="674" y="416" type="curve"/>
			<point x="674" y="210"/>
			<point x="496" y="36"/>
		</contour>
	</outline>
</glyph>
<glyph name="F" format="2">
	<advance width="642"/>
	<unicode hex="0046"/>
	<outline>
		<contour>
			<point x="186" y="687" type="line"/>
			<point x="43" y="0" type="line"/>
			<point x="79" y="0" type="line"/>
			<point x="150" y="342" type="line"/>
			<point x="138" y="332" type="line"/>
			<point x="543" y="332" type="line"/>
			<point x="550" y="368" type="line"/>
			<point x="147" y="368" type="line"/>
			<point x="154" y="358" type="line"/>
			<point x="216" y="661" type="line"/>
			<point x="204" y="651" type="line"/>
			<point x="650" y="651" type="line"/>
			<point x="657" y="687" type="line"/>
		</contour>
	</outline>
</glyph>
<glyph name="G" format="2">
	<advance width="778"/>
	<unicode hex="0047"/>
	<anchor x="517" y="687" name="top"/>
	<anchor x="377" y="0" name="bottom"/>
	<outline>
		<contour>
			<point x="377" y="-12" type="curve"/>
			<point x="377" y="-12" type="line"/>
			<point x="477" y="-12"/>
			<point x="579" y="27"/>
			<point x="661" y="90" type="curve"/>
			<point x="639" y="117" type="line"/>
			<point x="565" y="60"/>
			<point x="472" y="24"/>
			<point x="379" y="24" type="curve"/>
			<point x="229" y="24"/>
			<point x="125" y="135"/>
			<point x="125" y="279" type="curve"/>
			<point x="125" y="475"/>
			<point x="321" y="663"/>
			<point x="517" y="663" type="curve"/>
			<point x="608" y="663"/>
			<point x="685" y="629"/>
			<point x="736" y="572" type="curve"/>
			<point x="765" y="596" type="line"/>
			<point x="708" y="659"/>
			<point x="622" y="699"/>
			<point x="519" y="699" type="curve"/>
			<point x="302" y="699"/>
			<point x="89" y="492"/>
			<point x="89" y="275" type="curve"/>
			<point x="89" y="113"/>
			<point x="208" y="-12"/>
		</contour>
		<contour>
			<point x="673" y="324" type="line"/>
			<point x="625" y="90" type="line"/>
			<point x="661" y="90" type="line"/>
			<point x="713" y="340" type="line"/>
			<point x="438" y="340" type="line"/>
			<point x="431" y="304" type="line"/>
			<point x="684" y="304" type="line"/>
		</contour>
	</outline>
</glyph>
<glyph name="H" format="2">
	<advance width="713"/>
	<unicode hex="0048"/>
	<outline>
		<contour>
			<point x="186" y="687" type="line"/>
			<point x="43" y="0" type="line"/>
			<point x="79" y="0" type="line"/>
			<point x="151" y="343" type="line"/>
			<point x="147" y="332" type="line"/>
			<point x="596" y="332" type="line"/>
			<point x="598" y="343" type="line"/>
			<point x="526" y="0" type="line"/>
			<point x="562" y="0" type="line"/>
			<point x="705" y="687" type="line"/>
			<point x="669" y="687" type="line"/>
			<point x="601" y="357" type="line"/>
			<point x="604" y="368" type="line"/>
			<point x="155" y="368" type="line"/>
			<point x="154" y="357" type="line"/>
			<point x="222" y="687" type="line"/>
		</contour>
	</outline>
</glyph>
<glyph name="L" format="2">
	<advance width="603"/>
	<unicode hex="004C"/>
	<anchor x="204" y="687" name="top"/>
	<outline>
		<contour>
			<point x="186" y="687" type="line"/>
			<point x="43" y="0" type="line"/>
			<point x="475" y="0" type="line"/>
			<point x="483" y="36" type="line"/>
			<point x="76" y="36" type="line"/>
			<point x="85" y="24" type="line"/>
			<point x="222" y="687" type="line"/>
		</contour>
	</outline>
</glyph>
<glyph name="M" format="2">
	<advance width="818"/>
	<unicode hex="004D"/>
	<outline>
		<contour>
			<point x="186" y="687" type="line"/>
			<point x="43" y="0" type="line"/>
			<point x="79" y="0" type="line"/>
			<point x="208" y="615" type="line"/>
			<point x="377" y="96" type="line"/>
			<point x="760" y="615" type="line"/>
			<point x="631" y="0" type="line"/>
			<point x="667" y="0" type="line"/>
			<point x="810" y="687" type="line"/>
			<point x="774" y="687" type="line"/>
			<point x="389" y="168" type="line"/>
			<point x="222" y="687" type="line"/>
		</contour>
	</outline>
</glyph>
<glyph name="P" format="2">
	<advance width="702"/>
	<unicode hex="0050"/>
	<outline>
		<contour>
			<point x="186" y="687" type="line"/>
			<point x="43" y="0" type="line"/>
			<point x="79" y="0" type="line"/>
			<point x="135" y="267" type="line"/>
			<point x="389" y="267" type="line" smooth="yes"/>
			<point x="542" y="267"/>
			<point x="674" y="375"/>
			<point x="674" y="519" type="curve"/>
			<point x="674" y="619"/>
			<point x="596" y="687"/>
			<point x="474" y="687" type="curve"/>
		</contour>
		<contour>
			<point x="387" y="303" type="curve"/>
			<point x="142" y="303" type="line"/>
			<point x="215" y="651" type="line"/>
			<point x="462" y="651" type="line" smooth="yes"/>
			<point x="570" y="651"/>
			<point x="638" y="596"/>
			<point x="638" y="514" type="curve"/>
			<point x="638" y="395"/>
			<point x="521" y="303"/>
		</contour>
	</outline>
</glyph>
<glyph name="T" format="2">
	<advance width="688"/>
	<unicode hex="0054"/>
	<anchor x="434" y="687" name="top"/>
	<anchor x="281" y="0" name="bottom"/>
	<outline>
		<contour>
			<point x="408" y="651" type="line"/>
			<point x="272" y="0" type="line"/>
			<point x="308" y="0" type="line"/>
			<point x="444" y="651" type="line"/>
			<point x="696" y="651" type="line"/>
			<point x="703" y="687" type="line"/>
			<point x="163" y="687" type="line"/>
			<point x="156" y="651" type="line"/>
		</contour>
	</outline>
</glyph>
<glyph name="W" format="2">
	<advance width="1107"/>
	<unicode hex="0057"/>
	<anchor x="642" y="687" name="top"/>
	<outline>
		<contour>
			<point x="163" y="687" type="line"/>
			<point x="250" y="0" type="line"/>
			<point x="289" y="0" type="line"/>
			<point x="631" y="629" type="line"/>
			<point x="710" y="0" type="line"/>
			<point x="749" y="0" type="line"/>
			<point x="1122" y="687" type="line"/>
			<point x="1082" y="687" type="line"/>
			<point x="741" y="58" type="line"/>
			<point x="661" y="687" type="line"/>
			<point x="622" y="687" type="line"/>
			<point x="281" y="58" type="line"/>
			<point x="201" y="687" type="line"/>
		</contour>
	</outline>
</glyph>
<glyph name="X" format="2">
	<advance width="721"/>
	<unicode hex="0058"/>
	<outline>
		<contour>
			<point x="590" y="0" type="line"/>
			<point x="547" y="0" type="line"/>
			<point x="165" y="687" type="line"/>
			<point x="207" y="687" type="line"/>
		</contour>
		<contour>
			<point x="67" y="0" type="line"/>
			<point x="20" y="0" type="line"/>
			<point x="689" y="687" type="line"/>
			<point x="736" y="687" type="line"/>
		</contour>
	</outline>
</glyph>
<glyph name="bracketleft" format="2">
	<advance width="379"/>
	<unicode hex="005B"/>
	<outline>
		<contour>
			<point x="188" y="734" type="line"/>
			<point x="12" y="-115" type="line"/>
			<point x="233" y="-115" type="line"/>
			<point x="240" y="-79" type="line"/>
			<point x="55" y="-79" type="line"/>
			<point x="217" y="698" type="line"/>
			<point x="402" y="698" type="line"/>
			<point x="409" y="734" type="line"/>
		</contour>
	</outline>
</glyph>
<glyph name="backslash" format="2">
	<advance width="477"/>
	<unicode hex="005C"/>
	<outline>
		<contour>
			<point x="145" y="743" type="line"/>
			<point x="326" y="-74" type="line"/>
			<point x="364" y="-74" type="line"/>
			<point x="183" y="743" type="line"/>
		</contour>
	</outline>
</glyph>
<glyph name="bracketright" format="2">
	<advance width="379"/>
	<unicode hex="005D"/>
	<outline>
		<contour>
			<point x="-2" y="-79" type="line"/>
			<point x="-9" y="-115" type="line"/>
			<point x="212" y="-115" type="line"/>
			<point x="388" y="734" type="line"/>
			<point x="167" y="734" type="line"/>
			<point x="160" y="698" type="line"/>
			<point x="345" y="698" type="line"/>
			<point x="183" y="-79" type="line"/>
		</contour>
	</outline>
</glyph>
<glyph name="b" format="2">
	<advance width="590"/>
	<unicode hex="0062"/>
	<outline>
		<contour>
			<point x="254" y="-12" type="curve"/>
			<point x="254" y="-12" type="line"/>
			<point x="400" y="-12"/>
			<point x="546" y="153"/>
			<point x="546" y="318" type="curve"/>
			<point x="546" y="442"/>
			<point x="469" y="529"/>
			<point x="361" y="529" type="curve"/>
			<point x="198" y="529"/>
			<point x="60" y="374"/>
			<point x="60" y="190" type="curve"/>
			<point x="60" y="63"/>
			<point x="132" y="-12"/>
		</contour>
		<contour>
			<point x="249" y="24" type="curve"/>
			<point x="249" y="24" type="line"/>
			<point x="153" y="24"/>
			<point x="96" y="86"/>
			<point x="96" y="192" type="curve"/>
			<point x="96" y="355"/>
			<point x="213" y="493"/>
			<point x="352" y="493" type="curve"/>
			<point x="444" y="493"/>
			<point x="509" y="419"/>
			<point x="509" y="314" type="curve"/>
			<point x="509" y="169"/>
			<point x="379" y="24"/>
		</contour>
		<contour>
			<point x="158" y="699" type="line"/>
			<point x="13" y="0" type="line"/>
			<point x="49" y="0" type="line"/>
			<point x="194" y="699" type="line"/>
		</contour>
	</outline>
</glyph>
<glyph name="e" format="2">
	<advance width="570"/>
	<unicode hex="0065"/>
	<anchor x="365" y="517" name="top"/>
	<anchor x="251" y="-12" name="bottom"/>
	<outline>
		<contour>
			<point x="250" y="-12" type="curve"/>
			<point x="250" y="-12" type="line"/>
			<point x="331" y="-12"/>
			<point x="429" y="20"/>
			<point x="481" y="67" type="curve"/>
			<point x="460" y="96" type="line"/>
			<point x="408" y="49"/>
			<point x="330" y="24"/>
			<point x="255" y="24" type="curve"/>
			<point x="153" y="24"/>
			<point x="81" y="105"/>
			<point x="81" y="209" type="curve"/>
			<point x="81" y="350"/>
			<point x="209" y="493"/>
			<point x="355" y="493" type="curve"/>
			<point x="446" y="493"/>
			<point x="510" y="448"/>
			<point x="510" y="385" type="curve"/>
			<point x="510" y="318"/>
			<point x="436" y="278"/>
			<point x="310" y="278" type="curve"/>
			<point x="75" y="278" type="line"/>
			<point x="68" y="242" type="line"/>
			<point x="303" y="242" type="line"/>
			<point x="456" y="242"/>
			<point x="546" y="296"/>
			<point x="546" y="387" type="curve"/>
			<point x="546" y="470"/>
			<point x="469" y="529"/>
			<point x="361" y="529" type="curve"/>
			<point x="196" y="529"/>
			<point x="45" y="371"/>
			<point x="45" y="205" type="curve"/>
			<point x="45" y="82"/>
			<point x="129" y="-12"/>
		</contour>
	</outline>
</glyph>
<glyph name="g" format="2">
	<advance width="594"/>
	<unicode hex="0067"/>
	<anchor x="351" y="517" name="top"/>
	<anchor x="206" y="-172" name="bottom"/>
	<outline>
		<contour>
			<point x="581" y="517" type="line"/>
			<point x="545" y="517" type="line"/>
			<point x="449" y="56" type="line" smooth="yes"/>
			<point x="426" y="-56"/>
			<point x="323" y="-136"/>
			<point x="206" y="-136" type="curve"/>
			<point x="140" y="-136"/>
			<point x="68" y="-110"/>
			<point x="31" y="-72" type="curve"/>
			<point x="9" y="-102" type="line"/>
			<point x="48" y="-142"/>
			<point x="129" y="-172"/>
			<point x="206" y="-172" type="curve"/>
			<point x="342" y="-172"/>
			<point x="457" y="-79"/>
			<point x="485" y="54" type="curve"/>
		</contour>
		<contour>
			<point x="246" y="74" type="curve"/>
			<point x="246" y="74" type="line"/>
			<point x="147" y="74"/>
			<point x="85" y="145"/>
			<point x="85" y="237" type="curve"/>
			<point x="85" y="365"/>
			<point x="204" y="493"/>
			<point x="339" y="493" type="curve"/>
			<point x="436" y="493"/>
			<point x="502" y="426"/>
			<point x="502" y="332" type="curve"/>
			<point x="502" y="199"/>
			<point x="380" y="74"/>
		</contour>
		<contour>
			<point x="481" y="185" type="curve"/>
			<point x="481" y="185" type="line"/>
			<point x="521" y="381" type="line"/>
			<point x="508" y="476"/>
			<point x="429" y="529"/>
			<point x="337" y="529" type="curve"/>
			<point x="186" y="529"/>
			<point x="49" y="385"/>
			<point x="49" y="232" type="curve"/>
			<point x="49" y="121"/>
			<point x="125" y="38"/>
			<point x="238" y="38" type="curve"/>
			<point x="323" y="38"/>
			<point x="426" y="86"/>
		</contour>
	</outline>
</glyph>
<glyph name="h" format="2">
	<advance width="527"/>
	<unicode hex="0068"/>
	<outline>
		<contour>
			<point x="158" y="699" type="line"/>
			<point x="13" y="0" type="line"/>
			<point x="49" y="0" type="line"/>
			<point x="194" y="699" type="line"/>
		</contour>
		<contour>
			<point x="375" y="0" type="curve"/>
			<point x="375" y="0" type="line"/>
			<point x="411" y="0" type="line"/>
			<point x="482" y="339"/>
			<point x="487" y="353"/>
			<point x="487" y="381" type="curve"/>
			<point x="487" y="469"/>
			<point x="425" y="529"/>
			<point x="326" y="529" type="curve"/>
			<point x="220" y="529"/>
			<point x="131" y="460"/>
			<point x="111" y="361" type="curve"/>
			<point x="117" y="329" type="line"/>
			<point x="137" y="424"/>
			<point x="220" y="493"/>
			<point x="319" y="493" type="curve"/>
			<point x="399" y="493"/>
			<point x="449" y="445"/>
			<point x="449" y="372" type="curve"/>
			<point x="449" y="343"/>
			<point x="443" y="322"/>
		</contour>
	</outline>
</glyph>
<glyph name="k" format="2">
	<advance width="521"/>
	<unicode hex="006B"/>
	<anchor x="199" y="0" name="bottom"/>
	<outline>
		<contour>
			<point x="158" y="699" type="line"/>
			<point x="13" y="0" type="line"/>
			<point x="49" y="0" type="line"/>
			<point x="77" y="134" type="line"/>
			<point x="220" y="255" type="line"/>
			<point x="365" y="0" type="line"/>
			<point x="410" y="0" type="line"/>
			<point x="249" y="280" type="line"/>
			<point x="531" y="517" type="line"/>
			<point x="479" y="517" type="line"/>
			<point x="88" y="187" type="line"/>
			<point x="194" y="699" type="line"/>
		</contour>
	</outline>
</glyph>
<glyph name="l" format="2">
	<advance width="170"/>
	<unicode hex="006C"/>
	<anchor x="176" y="699" name="top"/>
	<anchor x="42" y="0" name="bottom"/>
	<outline>
		<contour>
			<point x="158" y="699" type="line"/>
			<point x="13" y="0" type="line"/>
			<point x="49" y="0" type="line"/>
			<point x="194" y="699" type="line"/>
		</contour>
	</outline>
</glyph>
<glyph name="n" format="2">
	<advance width="526"/>
	<unicode hex="006E"/>
	<anchor x="344" y="517" name="top"/>
	<anchor x="239" y="0" name="bottom"/>
	<outline>
		<contour>
			<point x="120" y="517" type="line"/>
			<point x="12" y="0" type="line"/>
			<point x="48" y="0" type="line"/>
			<point x="156" y="517" type="line"/>
		</contour>
		<contour>
			<point x="374" y="0" type="curve"/>
			<point x="374" y="0" type="line"/>
			<point x="410" y="0" type="line"/>
			<point x="481" y="339"/>
			<point x="486" y="353"/>
			<point x="486" y="381" type="curve"/>
			<point x="486" y="469"/>
			<point x="424" y="529"/>
			<point x="325" y="529" type="curve"/>
			<point x="219" y="529"/>
			<point x="130" y="460"/>
			<point x="110" y="361" type="curve"/>
			<point x="116" y="329" type="line"/>
			<point x="136" y="424"/>
			<point x="219" y="493"/>
			<point x="318" y="493" type="curve"/>
			<point x="398" y="493"/>
			<point x="448" y="445"/>
			<point x="448" y="372" type="curve"/>
			<point x="448" y="343"/>
			<point x="442" y="322"/>
		</contour>
	</outline>
</glyph>
<glyph name="r" format="2">
	<advance width="348"/>
	<unicode hex="0072"/>
	<anchor x="251" y="517" name="top"/>
	<anchor x="146" y="0" name="bottom"/>
	<outline>
		<contour>
			<point x="120" y="517" type="line"/>
			<point x="12" y="0" type="line"/>
			<point x="48" y="0" type="line"/>
			<point x="156" y="517" type="line"/>
		</contour>
		<contour>
			<point x="117" y="360" type="curve"/>
			<point x="108" y="288" type="line"/>
			<point x="134" y="407"/>
			<point x="235" y="493"/>
			<point x="352" y="493" type="curve"/>
			<point x="357" y="529" type="line"/>
			<point x="250" y="529"/>
			<point x="141" y="471"/>
		</contour>
	</outline>
</glyph>
<glyph name="u" format="2">
	<advance width="526"/>
	<unicode hex="0075"/>
	<anchor x="336" y="517" name="top"/>
	<anchor x="431" y="0" name="bottom"/>
	<outline>
		<contour>
			<point x="406" y="0" type="line"/>
			<point x="514" y="517" type="line"/>
			<point x="478" y="517" type="line"/>
			<point x="370" y="0" type="line"/>
		</contour>
		<contour>
			<point x="152" y="517" type="curve"/>
			<point x="152" y="517" type="line"/>
			<point x="116" y="517" type="line"/>
			<point x="45" y="178"/>
			<point x="40" y="164"/>
			<point x="40" y="136" type="curve"/>
			<point x="40" y="48"/>
			<point x="102" y="-12"/>
			<point x="201" y="-12" type="curve"/>
			<point x="307" y="-12"/>
			<point x="396" y="57"/>
			<point x="416" y="156" type="curve"/>
			<point x="410" y="188" type="line"/>
			<point x="390" y="93"/>
			<point x="307" y="24"/>
			<point x="208" y="24" type="curve"/>
			<point x="128" y="24"/>
			<point x="78" y="72"/>
			<point x="78" y="145" type="curve"/>
			<point x="78" y="174"/>
			<point x="84" y="195"/>
		</contour>
	</outline>
</glyph>
<glyph name="y" format="2">
	<advance width="578"/>
	<unicode hex="0079"/>
	<anchor x="347" y="517" name="top"/>
	<outline>
		<contour>
			<point x="54" y="-180" type="curve"/>
			<point x="54" y="-180" type="line"/>
			<point x="122" y="-180"/>
			<point x="180" y="-146"/>
			<point x="222" y="-77" type="curve"/>
			<point x="588" y="517" type="line"/>
			<point x="549" y="517" type="line"/>
			<point x="244" y="25" type="line"/>
			<point x="137" y="517" type="line"/>
			<point x="98" y="517" type="line"/>
			<point x="216" y="-21" type="line"/>
			<point x="169" y="-93" type="line"/>
			<point x="145" y="-124"/>
			<point x="101" y="-144"/>
			<point x="56" y="-144" type="curve"/>
			<point x="32" y="-144"/>
			<point x="9" y="-138"/>
			<point x="-12" y="-127" type="curve"/>
			<point x="-27" y="-162" type="line"/>
			<point x="-6" y="-173"/>
			<point x="23" y="-180"/>
		</contour>
	</outline>
</glyph>
<glyph name="z" format="2">
	<advance width="502"/>
	<unicode hex="007A"/>
	<anchor x="306" y="517" name="top"/>
	<outline>
		<contour>
			<point x="-1" y="30" type="line"/>
			<point x="-6" y="0" type="line"/>
			<point x="401" y="0" type="line"/>
			<point x="409" y="36" type="line"/>
			<point x="49" y="36" type="line"/>
			<point x="501" y="487" type="line"/>
			<point x="507" y="517" type="line"/>
			<point x="107" y="517" type="line"/>
			<point x="100" y="481" type="line"/>
			<point x="452" y="481" type="line"/>
		</contour>
	</outline>
</glyph>
<glyph name="braceleft" format="2">
	<advance width="439"/>
	<unicode hex="007B"/>
	<outline>
		<contour>
			<point x="279" y="-166" type="curve"/>
			<point x="279" y="-166" type="line"/>
			<point x="288" y="-131" type="line"/>
			<point x="197" y="-121"/>
			<point x="158" y="-92"/>
			<point x="158" y="-33" type="curve"/>
			<point x="158" y="12"/>
			<point x="199" y="147"/>
			<point x="199" y="193" type="curve"/>
			<point x="199" y="232"/>
			<point x="182" y="254"/>
			<point x="148" y="265" type="curve"/>
			<point x="202" y="280"/>
			<point x="227" y="312"/>
			<point x="241" y="379" type="curve"/>
			<point x="270" y="523" type="line" smooth="yes"/>
			<point x="288" y="609"/>
			<point x="342" y="650"/>
			<point x="456" y="662" type="curve"/>
			<point x="456" y="697" type="line"/>
			<point x="320" y="682"/>
			<point x="259" y="635"/>
			<point x="237" y="529" type="curve"/>
			<point x="207" y="389" type="line" smooth="yes"/>
			<point x="192" y="315"/>
			<point x="152" y="284"/>
			<point x="71" y="284" type="curve"/>
			<point x="67" y="248" type="line"/>
			<point x="133" y="248"/>
			<point x="161" y="229"/>
			<point x="161" y="181" type="curve"/>
			<point x="161" y="128"/>
			<point x="122" y="24"/>
			<point x="122" y="-43" type="curve"/>
			<point x="122" y="-117"/>
			<point x="171" y="-153"/>
		</contour>
	</outline>
</glyph>
<glyph name="cent" format="2">
	<advance width="619"/>
	<unicode hex="00A2"/>
	<anchor x="397" y="517" name="top"/>
	<anchor x="296" y="0" name="bottom"/>
	<outline>
		<contour>
			<point x="386" y="589" type="line"/>
			<point x="248" y="-74" type="line"/>
			<point x="284" y="-74" type="line"/>
			<point x="422" y="589" type="line"/>
		</contour>
		<contour>
			<point x="298" y="-12" type="curve"/>
			<point x="298" y="-12" type="line"/>
			<point x="358" y="-12"/>
			<point x="437" y="19"/>
			<point x="489" y="63" type="curve"/>
			<point x="467" y="90" type="line"/>
			<point x="421" y="51"/>
			<point x="351" y="24"/>
			<point x="300" y="24" type="curve"/>
			<point x="196" y="24"/>
			<point x="123" y="96"/>
			<point x="123" y="198" type="curve"/>
			<point x="123" y="358"/>
			<point x="251" y="493"/>
			<point x="403" y="493" type="curve"/>
			<point x="454" y="493"/>
			<point x="510" y="466"/>
			<point x="539" y="429" type="curve"/>
			<point x="568" y="452" type="line"/>
			<point x="532" y="497"/>
			<point x="465" y="529"/>
			<point x="405" y="529" type="curve"/>
			<point x="232" y="529"/>
			<point x="87" y="376"/>
			<point x="87" y="195" type="curve"/>
			<point x="87" y="74"/>
			<point x="174" y="-12"/>
		</contour>
	</outline>
</glyph>
<glyph name="yen" format="2">
	<advance width="772"/>
	<unicode hex="00A5"/>
	<anchor x="472" y="687" name="top"/>
	<outline>
		<contour>
			<point x="135" y="167" type="line"/>
			<point x="128" y="131" type="line"/>
			<point x="584" y="131" type="line"/>
			<point x="591" y="167" type="line"/>
		</contour>
		<contour>
			<point x="166" y="314" type="line"/>
			<point x="158" y="278" type="line"/>
			<point x="614" y="278" type="line"/>
			<point x="622" y="314" type="line"/>
		</contour>
		<contour>
			<point x="372" y="279" type="line"/>
			<point x="313" y="0" type="line"/>
			<point x="349" y="0" type="line"/>
			<point x="408" y="279" type="line"/>
			<point x="773" y="687" type="line"/>
			<point x="726" y="687" type="line"/>
			<point x="394" y="317" type="line"/>
			<point x="217" y="687" type="line"/>
			<point x="177" y="687" type="line"/>
		</contour>
	</outline>
</glyph>
<glyph name="dieresis" format="2">
	<advance width="358"/>
	<unicode hex="00A8"/>
	<anchor x="272" y="704" name="top"/>
	<anchor x="233" y="517" name="_top"/>
	<outline>
		<contour>
			<point x="160" y="613" type="curve"/>
			<point x="160" y="613" type="line"/>
			<point x="176" y="613"/>
			<point x="193" y="630"/>
			<point x="193" y="645" type="curve"/>
			<point x="193" y="661"/>
			<point x="182" y="673"/>
			<point x="166" y="673" type="curve"/>
			<point x="148" y="673"/>
			<point x="133" y="655"/>
			<point x="133" y="639" type="curve"/>
			<point x="133" y="624"/>
			<point x="144" y="613"/>
		</contour>
		<contour>
			<point x="352" y="613" type="curve"/>
			<point x="352" y="613" type="line"/>
			<point x="368" y="613"/>
			<point x="385" y="630"/>
			<point x="385" y="645" type="curve"/>
			<point x="385" y="661"/>
			<point x="374" y="673"/>
			<point x="358" y="673" type="curve"/>
			<point x="340" y="673"/>
			<point x="325" y="655"/>
			<point x="325" y="639" type="curve"/>
			<point x="325" y="624"/>
			<point x="336" y="613"/>
		</contour>
	</outline>
</glyph>
<glyph name="copyright" format="2">
	<advance width="958"/>
	<unicode hex="00A9"/>
	<outline>
		<contour>
			<point x="402" y="-116" type="curve"/>
			<point x="402" y="-116" type="line"/>
			<point x="663" y="-116"/>
			<point x="889" y="110"/>
			<point x="889" y="366" type="curve"/>
			<point x="889" y="548"/>
			<point x="764" y="675"/>
			<point x="566" y="675" type="curve"/>
			<point x="305" y="675"/>
			<point x="78" y="450"/>
			<point x="78" y="194" type="curve"/>
			<point x="78" y="12"/>
			<point x="206" y="-116"/>
		</contour>
		<contour>
			<point x="409" y="-80" type="curve"/>
			<point x="409" y="-80" type="line"/>
			<point x="231" y="-80"/>
			<point x="115" y="36"/>
			<point x="115" y="202" type="curve"/>
			<point x="115" y="433"/>
			<point x="320" y="639"/>
			<point x="559" y="639" type="curve"/>
			<point x="738" y="639"/>
			<point x="853" y="519"/>
			<point x="853" y="359" type="curve"/>
			<point x="853" y="128"/>
			<point x="649" y="-80"/>
		</contour>
		<contour>
			<point x="430" y="9" type="curve"/>
			<point x="430" y="9" type="line"/>
			<point x="490" y="9"/>
			<point x="569" y="40"/>
			<point x="621" y="84" type="curve"/>
			<point x="599" y="111" type="line"/>
			<point x="553" y="72"/>
			<point x="483" y="45"/>
			<point x="432" y="45" type="curve"/>
			<point x="328" y="45"/>
			<point x="255" y="117"/>
			<point x="255" y="219" type="curve"/>
			<point x="255" y="379"/>
			<point x="383" y="514"/>
			<point x="535" y="514" type="curve"/>
			<point x="586" y="514"/>
			<point x="642" y="487"/>
			<point x="671" y="450" type="curve"/>
			<point x="700" y="473" type="line"/>
			<point x="664" y="518"/>
			<point x="597" y="550"/>
			<point x="537" y="550" type="curve"/>
			<point x="364" y="550"/>
			<point x="219" y="397"/>
			<point x="219" y="216" type="curve"/>
			<point x="219" y="95"/>
			<point x="306" y="9"/>
		</contour>
	</outline>
</glyph>
<glyph name="degree" format="2">
	<advance width="431"/>
	<unicode hex="00B0"/>
	<outline>
		<contour>
			<point x="257" y="443" type="curve"/>
			<point x="257" y="443" type="line"/>
			<point x="347" y="443"/>
			<point x="413" y="508"/>
			<point x="413" y="597" type="curve"/>
			<point x="413" y="656"/>
			<point x="367" y="699"/>
			<point x="304" y="699" type="curve"/>
			<point x="214" y="699"/>
			<point x="148" y="634"/>
			<point x="148" y="544" type="curve"/>
			<point x="148" y="485"/>
			<point x="194" y="443"/>
		</contour>
		<contour>
			<point x="261" y="477" type="curve"/>
			<point x="261" y="477" type="line"/>
			<point x="216" y="477"/>
			<point x="184" y="508"/>
			<point x="184" y="550" type="curve"/>
			<point x="184" y="617"/>
			<point x="233" y="665"/>
			<point x="300" y="665" type="curve"/>
			<point x="345" y="665"/>
			<point x="377" y="635"/>
			<point x="377" y="594" type="curve"/>
			<point x="377" y="526"/>
			<point x="328" y="477"/>
		</contour>
	</outline>
</glyph>
<glyph name="acute" format="2">
	<advance width="258"/>
	<unicode hex="00B4"/>
	<guideline x="64" y="374" angle="0"/>
	<anchor x="164" y="704" name="top"/>
	<anchor x="126" y="517" name="_top"/>
	<outline>
		<contour>
			<point x="266" y="718" type="line"/>
			<point x="112" y="576" type="line"/>
			<point x="161" y="576" type="line"/>
			<point x="306" y="709" type="line"/>
		</contour>
	</outline>
</glyph>
<glyph name="paragraph" format="2">
	<advance width="609"/>
	<unicode hex="00B6"/>
	<outline>
		<contour>
			<point x="313" y="303" type="curve"/>
			<point x="238" y="-50" type="line"/>
			<point x="274" y="-50" type="line"/>
			<point x="420" y="651" type="line"/>
			<point x="554" y="651" type="line"/>
			<point x="408" y="-50" type="line"/>
			<point x="444" y="-50" type="line"/>
			<point x="597" y="687" type="line"/>
			<point x="382" y="687" type="line"/>
			<point x="245" y="687"/>
			<point x="126" y="585"/>
			<point x="126" y="456" type="curve"/>
			<point x="126" y="364"/>
			<point x="196" y="303"/>
		</contour>
	</outline>
</glyph>
<glyph name="periodcentered" format="2">
	<advance width="206"/>
	<unicode hex="00B7"/>
	<outline>
		<contour>
			<point x="103" y="241" type="curve"/>
			<point x="103" y="241" type="line"/>
			<point x="118" y="241"/>
			<point x="133" y="255"/>
			<point x="133" y="272" type="curve"/>
			<point x="133" y="286"/>
			<point x="123" y="296"/>
			<point x="108" y="296" type="curve"/>
			<point x="91" y="296"/>
			<point x="77" y="281"/>
			<point x="77" y="265" type="curve"/>
			<point x="77" y="251"/>
			<point x="87" y="241"/>
		</contour>
	</outline>
</glyph>
<glyph name="cedilla" format="2">
	<advance width="268"/>
	<unicode hex="00B8"/>
	<anchor x="86" y="0" name="_bottom"/>
	<outline>
		<contour>
			<point x="35" y="-192" type="curve"/>
			<point x="35" y="-192" type="line"/>
			<point x="90" y="-192"/>
			<point x="143" y="-146"/>
			<point x="143" y="-97" type="curve"/>
			<point x="143" y="-66"/>
			<point x="121" y="-45"/>
			<point x="86" y="-45" type="curve"/>
			<point x="70" y="-45"/>
			<point x="45" y="-53"/>
			<point x="27" y="-66" type="curve"/>
			<point x="62" y="-67" type="line"/>
			<point x="111" y="11" type="line"/>
			<point x="71" y="11" type="line"/>
			<point x="23" y="-67" type="line"/>
			<point x="36" y="-85" type="line"/>
			<point x="47" y="-77"/>
			<point x="61" y="-73"/>
			<point x="74" y="-73" type="curve"/>
			<point x="95" y="-73"/>
			<point x="107" y="-84"/>
			<point x="107" y="-103" type="curve"/>
			<point x="107" y="-132"/>
			<point x="75" y="-156"/>
			<point x="37" y="-156" type="curve"/>
			<point x="16" y="-156"/>
			<point x="-6" y="-148"/>
			<point x="-22" y="-132" type="curve"/>
			<point x="-42" y="-163" type="line"/>
			<point x="-21" y="-181"/>
			<point x="7" y="-192"/>
		</contour>
	</outline>
</glyph>
<glyph name="AE" format="2">
	<advance width="1017"/>
	<unicode hex="00C6"/>
	<anchor x="667" y="0" name="bottom"/>
	<outline>
		<contour>
			<point x="559" y="687" type="line"/>
			<point x="19" y="0" type="line"/>
			<point x="62" y="0" type="line"/>
			<point x="199" y="175" type="line"/>
			<point x="472" y="175" type="line"/>
			<point x="436" y="0" type="line"/>
			<point x="887" y="0" type="line"/>
			<point x="895" y="36" type="line"/>
			<point x="480" y="36" type="line"/>
			<point x="541" y="332" type="line"/>
			<point x="926" y="332" type="line"/>
			<point x="933" y="368" type="line"/>
			<point x="549" y="368" type="line"/>
			<point x="607" y="651" type="line"/>
			<point x="1023" y="651" type="line"/>
			<point x="1030" y="687" type="line"/>
		</contour>
		<contour>
			<point x="480" y="211" type="line"/>
			<point x="228" y="211" type="line"/>
			<point x="571" y="649" type="line"/>
		</contour>
	</outline>
</glyph>
<glyph name="multiply" format="2">
	<advance width="509"/>
	<unicode hex="00D7"/>
	<outline>
		<contour>
			<point x="65" y="185" type="line"/>
			<point x="86" y="159" type="line"/>
			<point x="477" y="484" type="line"/>
			<point x="455" y="509" type="line"/>
		</contour>
		<contour>
			<point x="126" y="484" type="line"/>
			<point x="385" y="159" type="line"/>
			<point x="414" y="185" type="line"/>
			<point x="156" y="509" type="line"/>
		</contour>
	</outline>
</glyph>
<glyph name="Oslash" format="2">
	<advance width="861"/>
	<unicode hex="00D8"/>
	<anchor x="518" y="687" name="top"/>
	<outline>
		<contour>
			<point x="769" y="687" type="line"/>
			<point x="25" y="0" type="line"/>
			<point x="74" y="0" type="line"/>
			<point x="818" y="687" type="line"/>
		</contour>
		<contour>
			<point x="378" y="-12" type="curve"/>
			<point x="378" y="-12" type="line"/>
			<point x="596" y="-12"/>
			<point x="807" y="194"/>
			<point x="807" y="410" type="curve"/>
			<point x="807" y="572"/>
			<point x="688" y="699"/>
			<point x="521" y="699" type="curve"/>
			<point x="306" y="699"/>
			<point x="91" y="489"/>
			<point x="91" y="272" type="curve"/>
			<point x="91" y="110"/>
			<point x="210" y="-12"/>
		</contour>
		<contour>
			<point x="381" y="24" type="curve"/>
			<point x="381" y="24" type="line"/>
			<point x="232" y="24"/>
			<point x="127" y="132"/>
			<point x="127" y="276" type="curve"/>
			<point x="127" y="472"/>
			<point x="323" y="663"/>
			<point x="517" y="663" type="curve"/>
			<point x="666" y="663"/>
			<point x="772" y="551"/>
			<point x="772" y="408" type="curve"/>
			<point x="772" y="215"/>
			<point x="578" y="24"/>
		</contour>
	</outline>
</glyph>
<glyph name="Thorn" format="2">
	<advance width="702"/>
	<unicode hex="00DE"/>
	<outline>
		<contour>
			<point x="186" y="687" type="line"/>
			<point x="43" y="0" type="line"/>
			<point x="79" y="0" type="line"/>
			<point x="108" y="136" type="line"/>
			<point x="362" y="136" type="line" smooth="yes"/>
			<point x="515" y="136"/>
			<point x="647" y="244"/>
			<point x="647" y="388" type="curve"/>
			<point x="647" y="488"/>
			<point x="569" y="556"/>
			<point x="447" y="556" type="curve"/>
			<point x="195" y="556" type="line"/>
			<point x="222" y="687" type="line"/>
		</contour>
		<contour>
			<point x="360" y="172" type="curve"/>
			<point x="115" y="172" type="line"/>
			<point x="188" y="520" type="line"/>
			<point x="435" y="520" type="line" smooth="yes"/>
			<point x="543" y="520"/>
			<point x="611" y="465"/>
			<point x="611" y="383" type="curve"/>
			<point x="611" y="264"/>
			<point x="494" y="172"/>
		</contour>
	</outline>
</glyph>
<glyph name="germandbls" format="2">
	<advance width="518"/>
	<unicode hex="00DF"/>
	<outline>
		<contour>
			<point x="123" y="524" type="curve"/>
			<point x="13" y="0" type="line"/>
			<point x="49" y="0" type="line"/>
			<point x="157" y="516" type="line" smooth="yes"/>
			<point x="174" y="600"/>
			<point x="260" y="671"/>
			<point x="344" y="671" type="curve"/>
			<point x="415" y="671"/>
			<point x="464" y="619"/>
			<point x="464" y="552" type="curve"/>
			<point x="464" y="459"/>
			<point x="382" y="379"/>
			<point x="281" y="379" type="curve"/>
			<point x="214" y="379" type="line"/>
			<point x="207" y="343" type="line"/>
			<point x="282" y="343" type="line" smooth="yes"/>
			<point x="370" y="343"/>
			<point x="424" y="296"/>
			<point x="424" y="228" type="curve"/>
			<point x="424" y="132"/>
			<point x="322" y="36"/>
			<point x="218" y="36" type="curve"/>
			<point x="143" y="36" type="line"/>
			<point x="135" y="0" type="line"/>
			<point x="234" y="0" type="line" smooth="yes"/>
			<point x="347" y="0"/>
			<point x="459" y="113"/>
			<point x="459" y="224" type="curve"/>
			<point x="459" y="285"/>
			<point x="427" y="340"/>
			<point x="377" y="364" type="curve"/>
			<point x="445" y="392"/>
			<point x="501" y="482"/>
			<point x="501" y="557" type="curve"/>
			<point x="501" y="641"/>
			<point x="437" y="707"/>
			<point x="346" y="707" type="curve"/>
			<point x="245" y="707"/>
			<point x="143" y="624"/>
		</contour>
	</outline>
</glyph>
<glyph name="eth" format="2">
	<advance width="593"/>
	<unicode hex="00F0"/>
	<outline>
		<contour>
			<point x="245" y="24" type="curve"/>
			<point x="245" y="24" type="line"/>
			<point x="142" y="24"/>
			<point x="78" y="90"/>
			<point x="78" y="188" type="curve"/>
			<point x="78" y="332"/>
			<point x="193" y="467"/>
			<point x="344" y="467" type="curve"/>
			<point x="449" y="467"/>
			<point x="511" y="403"/>
			<point x="511" y="306" type="curve"/>
			<point x="511" y="162"/>
			<point x="395" y="24"/>
		</contour>
		<contour>
			<point x="314" y="712" type="curve"/>
			<point x="280" y="697" type="line"/>
			<point x="384" y="623"/>
			<point x="473" y="525"/>
			<point x="507" y="414" type="curve"/>
			<point x="472" y="478"/>
			<point x="412" y="503"/>
			<point x="345" y="503" type="curve"/>
			<point x="176" y="503"/>
			<point x="42" y="353"/>
			<point x="42" y="186" type="curve"/>
			<point x="42" y="67"/>
			<point x="119" y="-12"/>
			<point x="244" y="-12" type="curve"/>
			<point x="418" y="-12"/>
			<point x="549" y="149"/>
			<point x="549" y="325" type="curve"/>
			<point x="549" y="483"/>
			<point x="443" y="625"/>
		</contour>
		<contour>
			<point x="243" y="578" type="line"/>
			<point x="252" y="545" type="line"/>
			<point x="513" y="652" type="line"/>
			<point x="504" y="685" type="line"/>
		</contour>
	</outline>
</glyph>
<glyph name="dcroat" format="2">
	<advance width="590"/>
	<unicode hex="0111"/>
	<outline>
		<contour>
			<point x="376" y="628" type="line"/>
			<point x="369" y="592" type="line"/>
			<point x="659" y="592" type="line"/>
			<point x="666" y="628" type="line"/>
		</contour>
		<contour>
			<point x="230" y="-12" type="curve"/>
			<point x="230" y="-12" type="line"/>
			<point x="393" y="-12"/>
			<point x="530" y="145"/>
			<point x="530" y="331" type="curve"/>
			<point x="530" y="455"/>
			<point x="460" y="529"/>
			<point x="342" y="529" type="curve"/>
			<point x="193" y="529"/>
			<point x="44" y="365"/>
			<point x="44" y="200" type="curve"/>
			<point x="44" y="76"/>
			<point x="121" y="-12"/>
		</contour>
		<contour>
			<point x="237" y="24" type="curve"/>
			<point x="237" y="24" type="line"/>
			<point x="145" y="24"/>
			<point x="80" y="98"/>
			<point x="80" y="202" type="curve"/>
			<point x="80" y="348"/>
			<point x="208" y="493"/>
			<point x="335" y="493" type="curve"/>
			<point x="434" y="493"/>
			<point x="493" y="429"/>
			<point x="493" y="321" type="curve"/>
			<point x="493" y="160"/>
			<point x="376" y="24"/>
		</contour>
		<contour>
			<point x="578" y="699" type="line"/>
			<point x="433" y="0" type="line"/>
			<point x="469" y="0" type="line"/>
			<point x="614" y="699" type="line"/>
		</contour>
	</outline>
</glyph>
<glyph name="Lslash" format="2">
	<advance width="692"/>
	<unicode hex="0141"/>
	<anchor x="293" y="687" name="top"/>
	<outline>
		<contour>
			<point x="81" y="293" type="line"/>
			<point x="73" y="252" type="line"/>
			<point x="404" y="406" type="line"/>
			<point x="412" y="447" type="line"/>
		</contour>
		<contour>
			<point x="275" y="687" type="line"/>
			<point x="132" y="0" type="line"/>
			<point x="564" y="0" type="line"/>
			<point x="572" y="36" type="line"/>
			<point x="165" y="36" type="line"/>
			<point x="174" y="24" type="line"/>
			<point x="311" y="687" type="line"/>
		</contour>
	</outline>
</glyph>
<glyph name="lslash" format="2">
	<advance width="285"/>
	<unicode hex="0142"/>
	<outline>
		<contour>
			<point x="52" y="290" type="line"/>
			<point x="44" y="249" type="line"/>
			<point x="259" y="349" type="line"/>
			<point x="267" y="390" type="line"/>
		</contour>
		<contour>
			<point x="218" y="699" type="line"/>
			<point x="73" y="0" type="line"/>
			<point x="109" y="0" type="line"/>
			<point x="254" y="699" type="line"/>
		</contour>
	</outline>
</glyph>
<glyph name="oe" format="2">
	<advance width="1072"/>
	<unicode hex="0153"/>
	<anchor x="373" y="517" name="top"/>
	<anchor x="753" y="-12" name="bottom"/>
	<outline>
		<contour>
			<point x="266" y="-12" type="curve"/>
			<point x="266" y="-12" type="line"/>
			<point x="443" y="-12"/>
			<point x="592" y="136"/>
			<point x="592" y="311" type="curve"/>
			<point x="592" y="429"/>
			<point x="492" y="529"/>
			<point x="373" y="529" type="curve"/>
			<point x="195" y="529"/>
			<point x="46" y="382"/>
			<point x="46" y="207" type="curve"/>
			<point x="46" y="88"/>
			<point x="147" y="-12"/>
		</contour>
		<contour>
			<point x="268" y="24" type="curve"/>
			<point x="268" y="24" type="line"/>
			<point x="167" y="24"/>
			<point x="82" y="109"/>
			<point x="82" y="209" type="curve"/>
			<point x="82" y="363"/>
			<point x="214" y="493"/>
			<point x="371" y="493" type="curve"/>
			<point x="471" y="493"/>
			<point x="556" y="408"/>
			<point x="556" y="308" type="curve"/>
			<point x="556" y="154"/>
			<point x="424" y="24"/>
		</contour>
		<contour>
			<point x="752" y="-12" type="curve"/>
			<point x="752" y="-12" type="line"/>
			<point x="833" y="-12"/>
			<point x="931" y="20"/>
			<point x="983" y="67" type="curve"/>
			<point x="962" y="96" type="line"/>
			<point x="910" y="49"/>
			<point x="832" y="24"/>
			<point x="757" y="24" type="curve"/>
			<point x="655" y="24"/>
			<point x="583" y="105"/>
			<point x="583" y="209" type="curve"/>
			<point x="583" y="350"/>
			<point x="711" y="493"/>
			<point x="857" y="493" type="curve"/>
			<point x="948" y="493"/>
			<point x="1012" y="448"/>
			<point x="1012" y="385" type="curve"/>
			<point x="1012" y="318"/>
			<point x="938" y="278"/>
			<point x="812" y="278" type="curve"/>
			<point x="577" y="278" type="line"/>
			<point x="570" y="242" type="line"/>
			<point x="805" y="242" type="line"/>
			<point x="958" y="242"/>
			<point x="1048" y="296"/>
			<point x="1048" y="387" type="curve"/>
			<point x="1048" y="470"/>
			<point x="971" y="529"/>
			<point x="863" y="529" type="curve"/>
			<point x="698" y="529"/>
			<point x="547" y="371"/>
			<point x="547" y="205" type="curve"/>
			<point x="547" y="82"/>
			<point x="631" y="-12"/>
		</contour>
	</outline>
</glyph>
<glyph name="circumflex" format="2">
	<advance width="350"/>
	<unicode hex="02C6"/>
	<anchor x="267" y="704" name="top"/>
	<anchor x="228" y="517" name="_top"/>
	<outline>
		<contour>
			<point x="246" y="713" type="line"/>
			<point x="112" y="576" type="line"/>
			<point x="157" y="576" type="line"/>
			<point x="263" y="682" type="line"/>
			<point x="327" y="576" type="line"/>
			<point x="370" y="576" type="line"/>
			<point x="290" y="713" type="line"/>
		</contour>
	</outline>
</glyph>
<glyph name="caron" format="2">
	<advance width="350"/>
	<unicode hex="02C7"/>
	<anchor x="267" y="704" name="top"/>
	<anchor x="228" y="517" name="_top"/>
	<outline>
		<contour>
			<point x="141" y="713" type="line"/>
			<point x="219" y="576" type="line"/>
			<point x="263" y="576" type="line"/>
			<point x="399" y="713" type="line"/>
			<point x="354" y="713" type="line"/>
			<point x="246" y="607" type="line"/>
			<point x="184" y="713" type="line"/>
		</contour>
	</outline>
</glyph>
<glyph name="breve" format="2">
	<advance width="387"/>
	<unicode hex="02D8"/>
	<anchor x="285" y="704" name="top"/>
	<anchor x="246" y="517" name="_top"/>
	<outline>
		<contour>
			<point x="264" y="589" type="curve"/>
			<point x="264" y="589" type="line"/>
			<point x="315" y="589"/>
			<point x="372" y="608"/>
			<point x="420" y="648" type="curve"/>
			<point x="398" y="676" type="line"/>
			<point x="359" y="644"/>
			<point x="311" y="626"/>
			<point x="266" y="626" type="curve"/>
			<point x="223" y="626"/>
			<point x="183" y="642"/>
			<point x="158" y="674" type="curve"/>
			<point x="128" y="650" type="line"/>
			<point x="161" y="610"/>
			<point x="209" y="589"/>
		</contour>
	</outline>
</glyph>
<glyph name="ring" format="2">
	<advance width="308"/>
	<unicode hex="02DA"/>
	<anchor x="247" y="704" name="top"/>
	<anchor x="208" y="517" name="_top"/>
	<outline>
		<contour>
			<point x="223" y="589" type="curve"/>
			<point x="223" y="589" type="line"/>
			<point x="286" y="589"/>
			<point x="349" y="648"/>
			<point x="349" y="713" type="curve"/>
			<point x="349" y="759"/>
			<point x="315" y="795"/>
			<point x="266" y="795" type="curve"/>
			<point x="204" y="795"/>
			<point x="139" y="737"/>
			<point x="139" y="672" type="curve"/>
			<point x="139" y="625"/>
			<point x="174" y="589"/>
		</contour>
		<contour>
			<point x="230" y="623" type="curve"/>
			<point x="230" y="623" type="line"/>
			<point x="197" y="623"/>
			<point x="174" y="648"/>
			<point x="174" y="680" type="curve"/>
			<point x="174" y="722"/>
			<point x="218" y="761"/>
			<point x="259" y="761" type="curve"/>
			<point x="291" y="761"/>
			<point x="314" y="737"/>
			<point x="314" y="706" type="curve"/>
			<point x="314" y="663"/>
			<point x="272" y="623"/>
		</contour>
	</outline>
</glyph>
<glyph name="ogonek" format="2">
	<advance width="282"/>
	<unicode hex="02DB"/>
	<anchor x="104" y="0" name="_bottom"/>
	<outline>
		<contour>
			<point x="64" y="-173" type="curve"/>
			<point x="64" y="-173" type="line"/>
			<point x="94" y="-173"/>
			<point x="127" y="-163"/>
			<point x="152" y="-145" type="curve"/>
			<point x="136" y="-113" type="line"/>
			<point x="120" y="-128"/>
			<point x="95" y="-137"/>
			<point x="70" y="-137" type="curve"/>
			<point x="39" y="-137"/>
			<point x="17" y="-117"/>
			<point x="17" y="-88" type="curve"/>
			<point x="17" y="-36"/>
			<point x="53" y="0"/>
			<point x="104" y="0" type="curve"/>
			<point x="81" y="21" type="line"/>
			<point x="25" y="14"/>
			<point x="-19" y="-37"/>
			<point x="-19" y="-94" type="curve"/>
			<point x="-19" y="-143"/>
			<point x="13" y="-173"/>
		</contour>
	</outline>
</glyph>
<glyph name="dotaccentcomb" format="2">
	<advance width="0"/>
	<unicode hex="0307"/>
	<guideline x="166" y="660" angle="78.2"/>
	<anchor x="-29" y="517" name="_top"/>
	<outline>
		<contour>
			<point x="-2" y="631" type="curve"/>
			<point x="-2" y="631" type="line"/>
			<point x="14" y="631"/>
			<point x="31" y="647"/>
			<point x="31" y="665" type="curve"/>
			<point x="31" y="680"/>
			<point x="20" y="691"/>
			<point x="4" y="691" type="curve"/>
			<point x="-14" y="691"/>
			<point x="-29" y="673"/>
			<point x="-29" y="656" type="curve"/>
			<point x="-29" y="641"/>
			<point x="-18" y="631"/>
		</contour>
	</outline>
</glyph>
<glyph name="endash" format="2">
	<advance width="583"/>
	<unicode hex="2013"/>
	<outline>
		<contour>
			<point x="66" y="290" type="line"/>
			<point x="58" y="254" type="line"/>
			<point x="523" y="254" type="line"/>
			<point x="531" y="290" type="line"/>
		</contour>
	</outline>
</glyph>
<glyph name="emdash" format="2">
	<advance width="888"/>
	<unicode hex="2014"/>
	<outline>
		<contour>
			<point x="66" y="290" type="line"/>
			<point x="58" y="254" type="line"/>
			<point x="828" y="254" type="line"/>
			<point x="836" y="290" type="line"/>
		</contour>
	</outline>
</glyph>
<glyph name="guilsinglleft" format="2">
	<advance width="338"/>
	<unicode hex="2039"/>
	<outline>
		<contour>
			<point x="65" y="249" type="line"/>
			<point x="194" y="55" type="line"/>
			<point x="227" y="60" type="line"/>
			<point x="105" y="249" type="line"/>
			<point x="307" y="437" type="line"/>
			<point x="273" y="442" type="line"/>
		</contour>
	</outline>
</glyph>
<glyph name="guilsinglright" format="2">
	<advance width="338"/>
	<unicode hex="203A"/>
	<outline>
		<contour>
			<point x="27" y="60" type="line"/>
			<point x="62" y="55" type="line"/>
			<point x="269" y="249" type="line"/>
			<point x="141" y="442" type="line"/>
			<point x="107" y="437" type="line"/>
			<point x="229" y="249" type="line"/>
		</contour>
	</outline>
</glyph>
<glyph name="euro" format="2">
	<advance width="885"/>
	<unicode hex="20AC"/>
	<anchor x="628" y="687" name="top"/>
	<anchor x="489" y="0" name="bottom"/>
	<outline>
		<contour>
			<point x="97" y="288" type="line"/>
			<point x="90" y="252" type="line"/>
			<point x="586" y="252" type="line"/>
			<point x="593" y="288" type="line"/>
		</contour>
		<contour>
			<point x="132" y="455" type="line"/>
			<point x="125" y="419" type="line"/>
			<point x="621" y="419" type="line"/>
			<point x="628" y="455" type="line"/>
		</contour>
		<contour>
			<point x="491" y="-12" type="curve"/>
			<point x="491" y="-12" type="line"/>
			<point x="581" y="-12"/>
			<point x="689" y="33"/>
			<point x="761" y="92" type="curve"/>
			<point x="738" y="120" type="line"/>
			<point x="672" y="64"/>
			<point x="573" y="24"/>
			<point x="493" y="24" type="curve"/>
			<point x="361" y="24"/>
			<point x="242" y="134"/>
			<point x="242" y="289" type="curve"/>
			<point x="242" y="481"/>
			<point x="426" y="663"/>
			<point x="625" y="663" type="curve"/>
			<point x="719" y="663"/>
			<point x="792" y="622"/>
			<point x="834" y="570" type="curve"/>
			<point x="863" y="593" type="line"/>
			<point x="812" y="655"/>
			<point x="728" y="699"/>
			<point x="626" y="699" type="curve"/>
			<point x="408" y="699"/>
			<point x="206" y="499"/>
			<point x="206" y="286" type="curve"/>
			<point x="206" y="110"/>
			<point x="343" y="-12"/>
		</contour>
	</outline>
</glyph>
<glyph name="trademark" format="2">
	<advance width="775"/>
	<unicode hex="2122"/>
	<outline>
		<contour>
			<point x="241" y="548" type="line"/>
			<point x="185" y="280" type="line"/>
			<point x="221" y="280" type="line"/>
			<point x="277" y="548" type="line"/>
			<point x="377" y="548" type="line"/>
			<point x="383" y="579" type="line"/>
			<point x="147" y="579" type="line"/>
			<point x="141" y="548" type="line"/>
		</contour>
		<contour>
			<point x="451" y="580" type="line"/>
			<point x="389" y="280" type="line"/>
			<point x="422" y="280" type="line"/>
			<point x="472" y="518" type="line"/>
			<point x="543" y="321" type="line"/>
			<point x="695" y="518" type="line"/>
			<point x="645" y="280" type="line"/>
			<point x="680" y="280" type="line"/>
			<point x="742" y="580" type="line"/>
			<point x="707" y="580" type="line"/>
			<point x="555" y="383" type="line"/>
			<point x="484" y="580" type="line"/>
		</contour>
	</outline>
</glyph>
<glyph name="_areas" format="2">
	<advance width="431"/>
	<outline>
		<contour>
			<point x="209" y="728" type="line"/>
			<point x="183" y="730" type="line"/>
			<point x="117" y="412" type="line"/>
			<point x="143" y="413" type="line"/>
			<point x="144" y="418" type="line"/>
			<point x="145" y="423" type="line"/>
			<point x="146" y="428" type="line"/>
			<point x="147" y="433" type="line"/>
			<point x="148" y="438" type="line"/>
			<point x="150" y="443" type="line"/>
			<point x="151" y="448" type="line"/>
			<point x="152" y="453" type="line"/>
			<point x="153" y="458" type="line"/>
			<point x="154" y="463" type="line"/>
			<point x="155" y="468" type="line"/>
			<point x="156" y="473" type="line"/>
			<point x="157" y="478" type="line"/>
			<point x="158" y="483" type="line"/>
			<point x="159" y="488" type="line"/>
			<point x="160" y="493" type="line"/>
			<point x="158" y="498" type="line"/>
			<point x="156" y="503" type="line"/>
			<point x="154" y="508" type="line"/>
			<point x="152" y="513" type="line"/>
			<point x="151" y="518" type="line"/>
			<point x="150" y="523" type="line"/>
			<point x="149" y="528" type="line"/>
			<point x="148" y="533" type="line"/>
			<point x="148" y="538" type="line"/>
			<point x="148" y="543" type="line"/>
			<point x="148" y="548" type="line"/>
			<point x="148" y="553" type="line"/>
			<point x="149" y="558" type="line"/>
			<point x="149" y="563" type="line"/>
			<point x="150" y="568" type="line"/>
			<point x="151" y="573" type="line"/>
			<point x="152" y="578" type="line"/>
			<point x="153" y="583" type="line"/>
			<point x="154" y="588" type="line"/>
			<point x="156" y="593" type="line"/>
			<point x="158" y="598" type="line"/>
			<point x="160" y="603" type="line"/>
			<point x="162" y="608" type="line"/>
			<point x="164" y="613" type="line"/>
			<point x="167" y="618" type="line"/>
			<point x="170" y="623" type="line"/>
			<point x="173" y="628" type="line"/>
			<point x="176" y="633" type="line"/>
			<point x="180" y="638" type="line"/>
			<point x="184" y="643" type="line"/>
			<point x="189" y="648" type="line"/>
			<point x="193" y="653" type="line"/>
			<point x="194" y="658" type="line"/>
			<point x="195" y="663" type="line"/>
			<point x="196" y="668" type="line"/>
			<point x="197" y="673" type="line"/>
			<point x="198" y="678" type="line"/>
			<point x="199" y="683" type="line"/>
			<point x="200" y="688" type="line"/>
			<point x="202" y="693" type="line"/>
			<point x="203" y="698" type="line"/>
			<point x="204" y="703" type="line"/>
			<point x="205" y="708" type="line"/>
			<point x="206" y="713" type="line"/>
			<point x="207" y="718" type="line"/>
			<point x="208" y="723" type="line"/>
		</contour>
		<contour>
			<point x="418" y="728" type="line"/>
			<point x="444" y="730" type="line"/>
			<point x="378" y="412" type="line"/>
			<point x="352" y="413" type="line"/>
			<point x="353" y="418" type="line"/>
			<point x="354" y="423" type="line"/>
			<point x="355" y="428" type="line"/>
			<point x="356" y="433" type="line"/>
			<point x="357" y="438" type="line"/>
			<point x="358" y="443" type="line"/>
			<point x="359" y="448" type="line"/>
			<point x="360" y="453" type="line"/>
			<point x="361" y="458" type="line"/>
			<point x="362" y="463" type="line"/>
			<point x="364" y="468" type="line"/>
			<point x="365" y="473" type="line"/>
			<point x="366" y="478" type="line"/>
			<point x="367" y="483" type="line"/>
			<point x="368" y="488" type="line"/>
			<point x="371" y="493" type="line"/>
			<point x="376" y="498" type="line"/>
			<point x="380" y="503" type="line"/>
			<point x="384" y="508" type="line"/>
			<point x="387" y="513" type="line"/>
			<point x="390" y="518" type="line"/>
			<point x="393" y="523" type="line"/>
			<point x="396" y="528" type="line"/>
			<point x="399" y="533" type="line"/>
			<point x="401" y="538" type="line"/>
			<point x="403" y="543" type="line"/>
			<point x="405" y="548" type="line"/>
			<point x="406" y="553" type="line"/>
			<point x="408" y="558" type="line"/>
			<point x="409" y="563" type="line"/>
			<point x="410" y="568" type="line"/>
			<point x="411" y="573" type="line"/>
			<point x="412" y="578" type="line"/>
			<point x="412" y="583" type="line"/>
			<point x="413" y="588" type="line"/>
			<point x="413" y="593" type="line"/>
			<point x="409" y="598" type="line"/>
			<point x="413" y="603" type="line"/>
			<point x="413" y="608" type="line"/>
			<point x="412" y="613" type="line"/>
			<point x="411" y="618" type="line"/>
			<point x="410" y="623" type="line"/>
			<point x="409" y="628" type="line"/>
			<point x="407" y="633" type="line"/>
			<point x="406" y="638" type="line"/>
			<point x="403" y="643" type="line"/>
			<point x="401" y="648" type="line"/>
			<point x="402" y="653" type="line"/>
			<point x="403" y="658" type="line"/>
			<point x="404" y="663" type="line"/>
			<point x="405" y="668" type="line"/>
			<point x="406" y="673" type="line"/>
			<point x="407" y="678" type="line"/>
			<point x="408" y="683" type="line"/>
			<point x="409" y="688" type="line"/>
			<point x="410" y="693" type="line"/>
			<point x="411" y="698" type="line"/>
			<point x="412" y="703" type="line"/>
			<point x="413" y="708" type="line"/>
			<point x="414" y="713" type="line"/>
			<point x="416" y="718" type="line"/>
			<point x="417" y="723" type="line"/>
		</contour>
	</outline>
</glyph>
<glyph name="ascender" format="2">
	<advance width="237"/>
	<anchor x="136" y="257" name="loop_right"/>
	<anchor x="99" y="249" name="loop_left"/>
	<anchor x="151" y="329" name="shoulder"/>
	<anchor x="100" y="125" name="k_arms"/>
	<outline>
		<contour>
			<point x="192" y="699" type="line"/>
			<point x="47" y="0" type="line"/>
			<point x="83" y="0" type="line"/>
			<point x="228" y="699" type="line"/>
		</contour>
	</outline>
</glyph>
<glyph name="descender" format="2">
	<advance width="237"/>
	<anchor x="99" y="249" name="loop_left"/>
	<anchor x="136" y="257" name="loop_right"/>
	<outline>
		<contour>
			<point x="154" y="517" type="line"/>
			<point x="11" y="-172" type="line"/>
			<point x="47" y="-172" type="line"/>
			<point x="190" y="517" type="line"/>
		</contour>
	</outline>
</glyph>
<glyph name="lowercase_loop" format="2">
	<advance width="646"/>
	<anchor x="123" y="257" name="_loop_right"/>
	<outline>
		<contour>
			<point x="275" y="-12" type="curve"/>
			<point x="275" y="-12" type="line"/>
			<point x="421" y="-12"/>
			<point x="567" y="153"/>
			<point x="567" y="318" type="curve"/>
			<point x="567" y="442"/>
			<point x="490" y="529"/>
			<point x="382" y="529" type="curve"/>
			<point x="219" y="529"/>
			<point x="81" y="374"/>
			<point x="81" y="190" type="curve"/>
			<point x="81" y="63"/>
			<point x="153" y="-12"/>
		</contour>
		<contour>
			<point x="270" y="24" type="curve"/>
			<point x="270" y="24" type="line"/>
			<point x="174" y="24"/>
			<point x="117" y="86"/>
			<point x="117" y="192" type="curve"/>
			<point x="117" y="355"/>
			<point x="234" y="493"/>
			<point x="373" y="493" type="curve"/>
			<point x="465" y="493"/>
			<point x="530" y="419"/>
			<point x="530" y="314" type="curve"/>
			<point x="530" y="169"/>
			<point x="400" y="24"/>
		</contour>
	</outline>
</glyph>
<glyph name="lowercase_m_shoulder" format="2">
	<advance width="480"/>
	<anchor x="54" y="329" name="_shoulder"/>
	<anchor x="390" y="329" name="shoulder"/>
	<outline>
		<contour>
			<point x="285" y="0" type="curve"/>
			<point x="285" y="0" type="line"/>
			<point x="321" y="0" type="line"/>
			<point x="391" y="336"/>
			<point x="397" y="351"/>
			<point x="397" y="381" type="curve"/>
			<point x="397" y="471"/>
			<point x="345" y="529"/>
			<point x="251" y="529" type="curve"/>
			<point x="159" y="529"/>
			<point x="76" y="474"/>
			<point x="59" y="392" type="curve"/>
			<point x="57" y="340" type="line"/>
			<point x="75" y="429"/>
			<point x="156" y="493"/>
			<point x="244" y="493" type="curve"/>
			<point x="318" y="493"/>
			<point x="360" y="447"/>
			<point x="360" y="372" type="curve"/>
			<point x="360" y="352"/>
			<point x="357" y="344"/>
		</contour>
	</outline>
</glyph>
<glyph name="lowercase_nh_shoulder" format="2">
	<advance width="469"/>
	<anchor x="37" y="329" name="_shoulder"/>
	<outline>
		<contour>
			<point x="295" y="0" type="curve"/>
			<point x="295" y="0" type="line"/>
			<point x="331" y="0" type="line"/>
			<point x="402" y="339"/>
			<point x="407" y="353"/>
			<point x="407" y="381" type="curve"/>
			<point x="407" y="469"/>
			<point x="345" y="529"/>
			<point x="246" y="529" type="curve"/>
			<point x="140" y="529"/>
			<point x="51" y="460"/>
			<point x="31" y="361" type="curve"/>
			<point x="37" y="329" type="line"/>
			<point x="57" y="424"/>
			<point x="140" y="493"/>
			<point x="239" y="493" type="curve"/>
			<point x="319" y="493"/>
			<point x="369" y="445"/>
			<point x="369" y="372" type="curve"/>
			<point x="369" y="343"/>
			<point x="363" y="322"/>
		</contour>
	</outline>
</glyph>
